<svg width="16" height="15" fill="none" xmlns="http://www.w3.org/2000/svg"><g clip-path="url(#clip0)"><path d="M15.185 10.68a14.905 14.905 0 00-4.765-1.216 3.671 3.671 0 001.044-1.247 3.44 3.44 0 00.377-1.545V3.586a3.523 3.523 0 00-1.196-2.434A3.998 3.998 0 007.99.159c-.988 0-1.939.355-2.655.993a3.523 3.523 0 00-1.196 2.434v3.057c-.003.54.125 1.075.373 1.563.247.489.61.919 1.058 1.258-1.662.139-3.286.55-4.796 1.215-.245.112-.45.286-.593.503a1.28 1.28 0 00-.212.722v1.724c0 .362.153.71.425.967s.641.402 1.028.405h13.105c.389 0 .762-.144 1.038-.401a1.34 1.34 0 00.435-.97v-1.725a1.31 1.31 0 00-.222-.721 1.435 1.435 0 00-.593-.504zM5.184 6.642V3.586a2.57 2.57 0 01.88-1.76 2.915 2.915 0 011.926-.715c.716 0 1.405.256 1.926.716a2.57 2.57 0 01.88 1.759v3.057c0 .343-.072.682-.213 1-.14.316-.346.604-.605.846a2.8 2.8 0 01-.906.564c-.338.13-.7.197-1.067.196a2.944 2.944 0 01-1.076-.187 2.804 2.804 0 01-.916-.563 2.605 2.605 0 01-.614-.85 2.466 2.466 0 01-.215-1.006zm9.771 6.985a.372.372 0 01-.126.28.422.422 0 01-.302.112H1.453a.432.432 0 01-.292-.115.38.38 0 01-.116-.277v-1.724a.373.373 0 01.057-.205.407.407 0 01.163-.148 15.772 15.772 0 016.73-1.274 15.704 15.704 0 016.72 1.274c.07.033.13.083.173.145a.385.385 0 01.067.208v1.724z" fill="#fff"/></g><defs><clipPath id="clip0"><path fill="#fff" d="M0 0h16v15H0z"/></clipPath></defs></svg>