<svg width="12" height="12" fill="none" xmlns="http://www.w3.org/2000/svg"><path d="M11.805 7.25c0-.133-.11-.25-.25-.25h-1.5c-.117 0-.196.07-.235.18-.133.312-.226.61-.414.914a3.988 3.988 0 01-6.125.828l1.07-1.07A.497.497 0 004.5 7.5c0-.273-.227-.5-.5-.5H.5c-.273 0-.5.227-.5.5V11c0 .273.227.5.5.5a.497.497 0 00.352-.148l1.007-1.008A5.988 5.988 0 005.97 12c2.883 0 5.164-1.93 5.828-4.695.008-.016.008-.04.008-.055zM12 1c0-.273-.227-.5-.5-.5a.497.497 0 00-.352.148l-1.015 1.008A6.066 6.066 0 006 0C3.117 0 .812 1.922.14 4.695v.055c0 .133.11.25.25.25h1.555c.117 0 .196-.07.235-.18.132-.312.226-.61.414-.914A3.988 3.988 0 016 2c1.008 0 1.984.383 2.727 1.07L7.648 4.148A.497.497 0 007.5 4.5c0 .273.227.5.5.5h3.5c.273 0 .5-.227.5-.5V1z" fill="#686868"/></svg>