<svg width="16" height="15" viewBox="0 0 16 15" fill="none" xmlns="http://www.w3.org/2000/svg">
<g clip-path="url(#clip0)">
<path d="M15.1851 10.6792C13.6847 10.0157 12.0717 9.60449 10.4196 9.46434C10.8615 9.12605 11.2182 8.70025 11.4639 8.21749C11.7096 7.73472 11.8384 7.20696 11.8409 6.67205V3.58583C11.7894 2.66083 11.3613 1.78961 10.6447 1.15191C9.92812 0.514213 8.97779 0.158691 7.98978 0.158691C7.00177 0.158691 6.05144 0.514213 5.33486 1.15191C4.61828 1.78961 4.19012 2.66083 4.1387 3.58583V6.64266C4.1363 7.18355 4.26374 7.71802 4.51158 8.20646C4.75943 8.69491 5.12132 9.12482 5.57045 9.46434C3.90788 9.60251 2.28419 10.0137 0.773581 10.6792C0.529328 10.7908 0.323964 10.9651 0.181472 11.182C0.0389815 11.3989 -0.0347541 11.6493 -0.031122 11.9039V13.6283C-0.0311319 13.9904 0.121581 14.3378 0.393708 14.5947C0.665836 14.8517 1.0353 14.9974 1.42152 14.9999H14.5267C14.9157 15 15.2889 14.8558 15.565 14.5988C15.841 14.3418 15.9975 13.993 16.0002 13.6283V11.9039C15.9992 11.6489 15.9224 11.3993 15.7784 11.1829C15.6344 10.9666 15.4289 10.7922 15.1851 10.6792ZM5.18377 6.64266V3.58583C5.2274 2.9159 5.54202 2.28681 6.06346 1.8269C6.5849 1.36699 7.27385 1.11092 7.98978 1.11092C8.70571 1.11092 9.39466 1.36699 9.9161 1.8269C10.4375 2.28681 10.7522 2.9159 10.7958 3.58583V6.64266C10.7958 6.98573 10.7235 7.32542 10.5832 7.64225C10.4428 7.95908 10.2371 8.24682 9.97789 8.48895C9.71865 8.73108 9.41096 8.92285 9.07248 9.05324C8.734 9.18363 8.37139 9.25009 8.00545 9.2488C7.63689 9.25399 7.27091 9.19042 6.9288 9.06178C6.58669 8.93314 6.27528 8.742 6.0127 8.49948C5.75012 8.25695 5.54161 7.9679 5.3993 7.64912C5.257 7.33035 5.18373 6.98822 5.18377 6.64266ZM14.9552 13.6283C14.9552 13.6806 14.944 13.7324 14.9224 13.7806C14.9007 13.8288 14.869 13.8724 14.8291 13.9089C14.7891 13.9455 14.7418 13.9741 14.6899 13.9932C14.6379 14.0123 14.5825 14.0215 14.5267 14.0202H1.45288C1.39846 14.0202 1.34459 14.01 1.29445 13.9902C1.24431 13.9704 1.1989 13.9414 1.16092 13.9048C1.12293 13.8683 1.09313 13.825 1.07327 13.7775C1.05341 13.73 1.0439 13.6793 1.0453 13.6283V11.9039C1.04377 11.8319 1.06344 11.7609 1.10216 11.6987C1.14088 11.6364 1.19714 11.5854 1.26476 11.5512C3.37198 10.6417 5.67646 10.2056 7.99501 10.2775C10.3102 10.2049 12.6115 10.6411 14.7148 11.5512C14.7856 11.5836 14.8454 11.6337 14.8879 11.6959C14.9303 11.7581 14.9535 11.8301 14.9552 11.9039V13.6283Z" fill="white"/>
</g>
<defs>
<clipPath id="clip0">
<rect width="16" height="15" fill="white"/>
</clipPath>
</defs>
</svg>
