<svg width="12" height="12" viewBox="0 0 12 12" fill="none" xmlns="http://www.w3.org/2000/svg">
<path d="M11.8047 7.25C11.8047 7.11719 11.6953 7 11.5547 7H10.0547C9.9375 7 9.85938 7.07031 9.82031 7.17969C9.6875 7.49219 9.59375 7.78906 9.40625 8.09375C8.67969 9.28125 7.39063 10 6 10C4.99219 10 4.01563 9.60937 3.28125 8.92188L4.35156 7.85156C4.44531 7.75781 4.5 7.63281 4.5 7.5C4.5 7.22656 4.27344 7 4 7H0.5C0.226563 7 0 7.22656 0 7.5V11C0 11.2734 0.226563 11.5 0.5 11.5C0.632813 11.5 0.757813 11.4453 0.851563 11.3516L1.85938 10.3437C2.96875 11.3984 4.44531 12 5.96875 12C8.85156 12 11.1328 10.0703 11.7969 7.30469C11.8047 7.28906 11.8047 7.26562 11.8047 7.25ZM12 1C12 0.726562 11.7734 0.499999 11.5 0.499999C11.3672 0.499999 11.2422 0.554687 11.1484 0.648437L10.1328 1.65625C9.02344 0.609374 7.53125 -5.96046e-07 6 -5.96046e-07C3.11719 -5.96046e-07 0.8125 1.92188 0.140625 4.69531C0.140625 4.71094 0.140625 4.73437 0.140625 4.75C0.140625 4.88281 0.25 5 0.390625 5H1.94531C2.0625 5 2.14063 4.92969 2.17969 4.82031C2.3125 4.50781 2.40625 4.21094 2.59375 3.90625C3.32031 2.71875 4.60938 2 6 2C7.00781 2 7.98438 2.38281 8.72656 3.07031L7.64844 4.14844C7.55469 4.24219 7.5 4.36719 7.5 4.5C7.5 4.77344 7.72656 5 8 5H11.5C11.7734 5 12 4.77344 12 4.5V1Z" fill="#686868"/>
</svg>
